<svg xmlns="http://www.w3.org/2000/svg" viewBox="0 0 64 64" role="img" aria-label="GAPPO logo">
  <defs>
    <linearGradient id="g" x1="8" y1="8" x2="56" y2="56" gradientUnits="userSpaceOnUse">
      <stop stop-color="#8f2f50"/>
      <stop offset="1" stop-color="#d8738f"/>
    </linearGradient>
  </defs>
  <rect width="64" height="64" rx="15" fill="url(#g)"/>
  <path d="M46 20.5c-3.1-3.2-7.2-4.9-12.1-4.9-9.7 0-16.4 6.8-16.4 16.6 0 9.6 6.6 16.2 16.3 16.2 5.2 0 9.6-1.7 13.1-5.1V30.1H32.5v7h6.4v3a10.6 10.6 0 0 1-4.7 1c-5.1 0-8.4-3.5-8.4-9.1 0-5.7 3.4-9.2 8.6-9.2 2.8 0 5.2 1 7.2 3l4.4-5.3Z" fill="#fff"/>
</svg>
